
<svg width="707" height="356" viewBox="0 0 707 356" fill="none" xmlns="http://www.w3.org/2000/svg" opacity="0.58">
<g opacity="0.58">
<path d="M54.1607 67.9641C52.8399 64.5537 52.2478 60.5757 53.2569 56.962C54.2657 53.2675 56.5255 50.3039 58.7853 47.5428C65.0764 40.1938 72.8297 34.7944 78.9829 27.3247C82.3895 23.2238 85.2051 18.3113 86.1782 12.6675C86.9781 8.52679 86.596 4.26404 85.8662 0.163086C89.134 4.50737 90.2118 10.719 89.2728 16.322C88.2651 22.6145 85.2744 28.1764 81.7636 32.9668C78.948 36.8245 75.7143 40.2346 72.3426 43.4021C68.4143 47.0966 64.5558 51.0749 62.088 56.2718C60.0011 60.4935 59.5142 65.6904 60.9401 70.2783C63.2697 78.154 68.6922 84.0007 71.6477 91.4299C68.3791 88.0599 65.1815 84.5685 62.1908 80.8746C59.0632 76.9769 56.1077 72.8365 54.1607 67.9641ZM71.8905 61.7926C71.2997 68.2482 74.1843 74.3378 77.6269 79.129C79.2949 81.2804 80.7204 83.9194 80.7894 86.9241C80.8595 90.9419 78.9137 94.6786 76.4089 97.3163C77.0007 97.2361 77.4177 96.6265 77.9046 96.3019C81.6591 93.5004 85.2738 89.9683 87.1163 85.138C88.3332 81.8492 88.0553 77.9512 86.4566 74.9057C84.5786 71.3331 82.111 68.1663 80.6512 64.2692C79.8504 62.077 79.5725 59.5195 80.2333 57.2053C81.1031 54.0796 82.9799 51.5215 84.9618 49.2885C90.4193 43.24 97.0244 38.9348 103.352 34.2262C95.3559 36.9054 87.4646 40.6002 80.7204 46.4064C76.4441 50.1414 72.4817 55.3377 71.8905 61.7926ZM109.889 92.3236C113.678 92.5676 117.397 95.8149 118.093 100.281C118.753 104.138 117.155 107.954 115.103 110.877C111.73 115.586 107.176 118.957 102.588 121.839C102.135 122.162 101.753 122.569 101.405 123.016C107.455 121.229 113.503 118.551 118.405 113.963C121.116 111.324 123.515 107.831 124.037 103.65C124.524 100.037 123.238 96.3016 120.943 93.9065C118.161 90.9416 114.234 89.8463 110.548 90.4152C108.428 90.7397 106.099 91.2675 104.639 93.338C106.378 92.9332 108.08 92.1204 109.889 92.3236ZM34.415 103.934C38.9683 105.355 43.6619 105.761 48.3203 106.127C52.4919 106.451 56.6643 106.533 60.8711 106.492C71.717 106.29 82.6328 105.437 93.2703 102.676C94.278 102.393 95.391 102.189 96.296 101.459C98.0687 100.118 100.014 99.0623 101.927 98.0068C93.2703 99.6308 84.5792 101.012 75.819 101.662C66.9542 102.311 58.0192 102.717 49.1202 102.027C46.5825 101.743 43.9747 101.58 41.611 100.443C41.0541 100.159 40.2891 99.5917 40.567 98.7378C41.089 97.6415 42.1319 97.1144 43.0357 96.5459C46.8604 94.4346 51.0317 93.2578 55.0994 91.8774C48.1111 91.7548 41.158 93.825 34.7627 97.0329C33.3369 97.8454 31.7379 98.4945 30.5911 99.8751C30.1381 100.442 30.1381 101.419 30.6601 101.905C31.7033 103.001 33.093 103.488 34.415 103.934ZM90.7335 115.1C84.6493 116.358 78.5299 117.537 72.3764 117.901C65.6322 118.429 58.8881 117.982 52.2137 117.17C50.9278 116.967 49.6411 116.724 48.4943 116.034C47.9033 115.628 47.3126 114.979 47.3475 114.125C47.4165 112.785 48.3893 111.852 49.0853 110.877C46.9305 111.771 44.7746 112.703 42.967 114.37C42.2012 115.06 41.437 116.155 41.6451 117.373C41.9593 118.794 43.141 119.647 44.1839 120.296C46.7557 121.84 49.6414 122.529 52.4581 123.138C59.5832 124.479 66.8494 124.519 74.0106 123.95C81.591 123.26 89.134 121.799 96.4691 119.281C94.3833 118.186 92.4015 116.926 90.7335 115.1ZM52.5268 129.148C50.5801 129.797 48.5982 130.569 46.9995 132.07C46.1985 132.801 45.5737 134.061 45.9566 135.238C46.4434 136.739 47.6603 137.634 48.8063 138.403C51.797 140.313 55.1687 141.205 58.4711 141.896C65.9465 143.275 73.6285 143.073 81.0684 141.531C85.483 140.556 89.8984 139.175 94.0001 137.024C91.3234 135.725 88.7167 134.263 86.2139 132.558C81.8683 133.451 77.487 134.386 73.0372 134.71C67.1631 135.238 61.2177 134.67 55.3424 133.817C53.9515 133.452 52.2137 133.289 51.275 131.868C50.7893 130.69 51.9012 129.837 52.5268 129.148ZM100.085 155.252C104.951 154.076 109.854 152.734 114.303 150.096C115.693 149.161 117.397 148.146 117.85 146.199C118.093 144.331 116.424 143.356 115.242 142.585C115.972 143.561 116.458 144.981 115.728 146.117C114.511 148.026 112.426 148.756 110.583 149.487C104.813 151.395 98.8326 152.167 92.8883 152.939C77.1401 154.603 61.2869 155.009 45.5396 153.466C40.2553 152.816 34.8657 152.126 29.8253 149.934C29.0265 149.528 27.8096 149.122 27.8096 147.863C28.1216 146.769 29.0265 146.158 29.8253 145.63C33.4408 143.479 37.4735 142.301 41.506 142.017C40.3252 141.204 38.9343 141.124 37.5786 141.165C34.2058 141.286 30.9034 142.301 27.7057 143.561C24.9591 144.736 22.1432 146.037 19.9524 148.392C19.0835 149.284 18.2847 150.989 19.1874 152.208C20.5783 153.954 22.7342 154.4 24.6449 154.927C35.3526 157.08 46.1985 158.296 57.0464 158.743C71.4388 159.232 85.9352 158.501 100.085 155.252ZM114.338 157.445C107.802 159.881 101.023 161.22 94.2783 162.317C82.6328 164.022 70.8819 164.549 59.1662 164.144C52.04 163.82 44.9137 163.251 37.8905 161.87C39.5244 163.169 41.5412 163.575 43.4189 164.184C51.311 166.133 59.4101 166.499 67.4413 166.782C79.2248 167.026 91.0103 166.499 102.622 164.347C108.116 163.212 113.643 161.83 118.578 158.825C121.152 157.242 123.76 154.805 124.21 151.274C121.603 154.521 117.85 156.024 114.338 157.445Z" fill="black"/>
</g>
<g opacity="0.58" clip-path="url(#clip0_0_1)">
<path fill-rule="evenodd" clip-rule="evenodd" d="M292.729 158.75C290.054 158.75 287.89 156.653 287.89 154.061C287.89 151.469 290.054 149.377 292.729 149.377C295.404 149.377 297.569 151.469 297.569 154.061C297.569 156.653 295.404 158.75 292.729 158.75ZM277.9 167C306.082 167 304.323 155.158 304.323 155.158L304.29 142.891H277.4V139.208H314.968C314.968 139.208 333 141.192 333 113.641C333 86.0897 317.266 87.0609 317.266 87.0609H307.87V99.8507C307.87 99.8507 308.375 115.096 292.385 115.096H265.712C265.712 115.096 250.727 114.867 250.727 129.135V152.721C250.727 152.721 248.451 167 277.9 167ZM262.276 68.2497C264.951 68.2497 267.11 70.3466 267.11 72.9387C267.11 75.5309 264.951 77.6226 262.276 77.6226C259.601 77.6226 257.437 75.5309 257.437 72.9387C257.437 70.3466 259.601 68.2497 262.276 68.2497ZM277.1 60C248.923 60 250.682 71.8416 250.682 71.8416L250.716 84.109H277.606V87.7923H240.032C240.032 87.7923 222 85.8077 222 113.359C222 140.91 237.74 139.939 237.74 139.939H247.13V127.149C247.13 127.149 246.625 111.904 262.62 111.904H289.288C289.288 111.904 304.273 112.133 304.273 97.8654V74.2789C304.273 74.2789 306.549 60 277.1 60Z" fill="black"/>
</g>
<g opacity="0.58" clip-path="url(#clip1_0_1)">
<path d="M411 74.375C411 68.0928 415.995 63 422.156 63H501.844C508.005 63 513 68.0928 513 74.375V87.375C513 90.0674 510.859 92.25 508.219 92.25C505.578 92.25 503.438 90.0674 503.438 87.375V74.375C503.438 73.4775 502.724 72.75 501.844 72.75H422.156C421.276 72.75 420.562 73.4775 420.562 74.375V155.625C420.562 156.523 421.276 157.25 422.156 157.25H508.219C510.859 157.25 513 159.433 513 162.125C513 164.817 510.859 167 508.219 167H422.156C415.995 167 411 161.907 411 155.625V74.375ZM463.594 100.375C466.234 100.375 468.375 102.558 468.375 105.25V131.25C468.375 137.781 466.615 142.68 462.989 145.761C459.528 148.701 455.331 149.125 452.438 149.125C449.797 149.125 447.656 146.942 447.656 144.25C447.656 141.558 449.797 139.375 452.438 139.375C454.644 139.375 456.025 138.986 456.867 138.271C457.544 137.695 458.812 136.094 458.812 131.25V105.25C458.812 102.558 460.953 100.375 463.594 100.375ZM482.883 105.771C485.552 102.531 489.736 100.375 495.469 100.375C500.791 100.375 504.807 102.232 507.514 105.151C509.327 107.108 509.242 110.193 507.323 112.043C505.404 113.892 502.378 113.805 500.564 111.849C499.864 111.093 498.468 110.125 495.469 110.125C492.277 110.125 490.883 111.219 490.205 112.042C489.37 113.054 489.094 114.324 489.094 115C489.094 115.676 489.37 116.946 490.205 117.958C490.883 118.781 492.277 119.875 495.469 119.875C495.951 119.875 496.417 119.948 496.856 120.083C501.083 120.697 504.278 122.621 506.461 125.271C508.974 128.32 509.812 131.926 509.812 134.5C509.812 137.074 508.974 140.68 506.461 143.729C503.792 146.97 499.608 149.125 493.875 149.125C488.553 149.125 484.537 147.268 481.83 144.349C480.016 142.392 480.102 139.307 482.021 137.457C483.94 135.608 486.966 135.695 488.779 137.651C489.48 138.407 490.876 139.375 493.875 139.375C497.067 139.375 498.461 138.28 499.139 137.458C499.973 136.445 500.25 135.176 500.25 134.5C500.25 133.824 499.973 132.555 499.139 131.542C498.461 130.72 497.067 129.625 493.875 129.625C493.392 129.625 492.926 129.552 492.488 129.416C488.261 128.803 485.065 126.879 482.883 124.229C480.37 121.179 479.531 117.574 479.531 115C479.531 112.426 480.37 108.821 482.883 105.771Z" fill="black"/>
</g>
<g opacity="0.56" clip-path="url(#clip2_0_1)">
<path d="M641.751 99.875C631.74 99.875 623.625 107.99 623.625 118.001C623.625 128.012 631.74 136.127 641.751 136.127C646.914 136.127 651.565 133.976 654.873 130.506C656.945 128.333 660.387 128.25 662.561 130.323C664.735 132.395 664.817 135.836 662.744 138.01C657.469 143.543 650.01 147.002 641.751 147.002C625.734 147.002 612.75 134.018 612.75 118.001C612.75 101.984 625.734 89 641.751 89C649.975 89 657.407 92.4299 662.678 97.9225C664.757 100.089 664.686 103.531 662.52 105.611C660.353 107.69 656.911 107.619 654.831 105.452C651.526 102.008 646.892 99.875 641.751 99.875Z" fill="black"/>
<path d="M638.751 60.7407C640.444 59.7531 642.538 59.7531 644.231 60.7407L678.41 80.6782C681.004 82.1914 681.879 85.5208 680.366 88.1148C678.853 90.7087 675.524 91.5849 672.93 90.0718L641.491 71.7325L601.875 94.8419V141.158L641.491 164.267L672.93 145.928C675.524 144.415 678.853 145.291 680.366 147.885C681.879 150.479 681.004 153.808 678.41 155.322L644.231 175.259C642.538 176.247 640.444 176.247 638.751 175.259L593.698 148.978C592.027 148.003 591 146.216 591 144.281V91.7187C591 89.7848 592.027 87.9964 593.698 87.022L638.751 60.7407Z" fill="black"/>
<path d="M679.304 98.0625C681.306 98.0625 682.929 99.6855 682.929 101.688V134.312C682.929 136.314 681.306 137.938 679.304 137.938C677.303 137.938 675.679 136.314 675.679 134.312V101.688C675.679 99.6855 677.303 98.0625 679.304 98.0625Z" fill="black"/>
<path d="M694.821 98.0625C696.822 98.0625 698.446 99.6855 698.446 101.688V134.312C698.446 136.314 696.822 137.938 694.821 137.938C692.819 137.938 691.196 136.314 691.196 134.312V101.688C691.196 99.6855 692.819 98.0625 694.821 98.0625Z" fill="black"/>
<path d="M667.125 110.242C667.125 108.24 668.748 106.617 670.75 106.617H703.375C705.377 106.617 707 108.24 707 110.242C707 112.244 705.377 113.867 703.375 113.867H670.75C668.748 113.867 667.125 112.244 667.125 110.242Z" fill="black"/>
<path d="M667.125 125.758C667.125 123.756 668.748 122.133 670.75 122.133H703.375C705.377 122.133 707 123.756 707 125.758C707 127.76 705.377 129.383 703.375 129.383H670.75C668.748 129.383 667.125 127.76 667.125 125.758Z" fill="black"/>
</g>
<path opacity="0.51" d="M31.9892 225.963C30.6737 225.963 29.6073 226.93 29.6073 228.124V310.657C29.6073 311.429 30.0617 312.143 30.7991 312.528L77.0909 336.748C77.8113 337.125 78.6963 337.134 79.4257 336.772L128.409 312.425C129.172 312.045 129.647 311.319 129.647 310.53V228.124C129.647 226.93 128.581 225.963 127.265 225.963H31.9892ZM15.316 228.124C15.316 219.771 22.7808 213 31.9892 213H127.265C136.473 213 143.938 219.771 143.938 228.124V310.53C143.938 316.054 140.618 321.138 135.278 323.793L86.2933 348.139C81.188 350.677 74.9932 350.615 69.9503 347.977L23.6585 323.758C18.4965 321.057 15.316 316.063 15.316 310.657V228.124ZM51.0444 249.729C51.0444 246.149 54.2436 243.247 58.19 243.247H102.164C106.11 243.247 109.309 246.149 109.309 249.729C109.309 253.308 106.11 256.21 102.164 256.21H65.3357V271.001H102.164C106.11 271.001 109.309 273.903 109.309 277.483V302.412C109.309 304.866 107.78 307.111 105.359 308.209L83.3724 318.18C81.3607 319.093 78.9928 319.093 76.9811 318.18L54.9944 308.209C52.5735 307.111 51.0444 304.866 51.0444 302.412V297.426C51.0444 293.846 54.2436 290.944 58.19 290.944C62.1365 290.944 65.3357 293.846 65.3357 297.426V298.406L80.1767 305.137L95.0178 298.406V283.964H58.19C54.2436 283.964 51.0444 281.062 51.0444 277.483V249.729Z" fill="black"/>
<g opacity="0.49">
<path d="M283 212.85C286.534 212.85 289.407 215.757 289.407 219.353V227.139C291.886 227.436 294.323 227.912 296.693 228.55L299.063 222.744C299.385 221.955 299.857 221.239 300.451 220.635C301.046 220.032 301.752 219.553 302.528 219.226C303.305 218.899 304.138 218.731 304.979 218.731C305.82 218.731 306.653 218.899 307.43 219.225C308.207 219.552 308.913 220.03 309.508 220.634C310.102 221.237 310.574 221.954 310.896 222.742C311.218 223.531 311.384 224.376 311.384 225.229C311.384 226.083 311.219 226.928 310.897 227.717L308.586 233.369C310.989 234.704 313.276 236.217 315.428 237.9L320.729 232.519C321.945 231.38 323.548 230.763 325.203 230.797C326.857 230.831 328.434 231.513 329.604 232.7C330.774 233.888 331.446 235.488 331.48 237.167C331.513 238.846 330.905 240.473 329.783 241.708L324.59 246.978C326.6 249.511 328.384 252.231 329.925 255.104L335.21 252.885C335.992 252.528 336.837 252.334 337.694 252.315C338.551 252.295 339.404 252.451 340.201 252.772C340.998 253.093 341.723 253.573 342.334 254.184C342.945 254.795 343.429 255.524 343.757 256.328C344.085 257.133 344.25 257.995 344.244 258.866C344.237 259.736 344.058 260.596 343.718 261.395C343.378 262.194 342.883 262.915 342.263 263.517C341.643 264.118 340.911 264.587 340.109 264.896L334.632 267.191C335.235 269.545 335.687 271.951 335.972 274.407H342.756C344.414 274.468 345.984 275.179 347.135 276.391C348.287 277.603 348.931 279.221 348.931 280.905C348.931 282.589 348.287 284.207 347.135 285.419C345.984 286.631 344.414 287.343 342.756 287.404H335.972C335.624 290.358 335.036 293.278 334.213 296.133L339.774 298.471C340.576 298.779 341.308 299.248 341.928 299.849C342.548 300.451 343.043 301.172 343.383 301.971C343.723 302.77 343.902 303.63 343.909 304.501C343.915 305.371 343.75 306.234 343.422 307.038C343.094 307.842 342.61 308.571 341.999 309.182C341.388 309.793 340.663 310.273 339.866 310.594C339.069 310.915 338.216 311.071 337.359 311.051C336.502 311.032 335.657 310.838 334.875 310.481L329.247 308.118C328.158 310.158 326.918 312.122 325.562 314.009L329.783 318.293C330.905 319.527 331.513 321.154 331.48 322.833C331.446 324.512 330.774 326.113 329.604 327.3C328.434 328.488 326.857 329.17 325.203 329.203C323.548 329.237 321.945 328.62 320.729 327.481L316.835 323.529C314.322 325.679 311.584 327.609 308.644 329.283L310.897 334.808C311.239 335.6 311.422 336.454 311.435 337.318C311.448 338.183 311.292 339.042 310.974 339.844C310.656 340.647 310.183 341.377 309.584 341.992C308.985 342.606 308.271 343.094 307.484 343.425C306.696 343.756 305.852 343.925 305 343.921C304.148 343.917 303.305 343.741 302.521 343.402C301.737 343.064 301.027 342.57 300.433 341.949C299.84 341.329 299.374 340.594 299.063 339.789L296.802 334.264C294.376 334.955 291.905 335.469 289.407 335.803V340.648C289.407 342.372 288.732 344.026 287.53 345.246C286.329 346.465 284.699 347.15 283 347.15C281.301 347.15 279.671 346.465 278.47 345.246C277.268 344.026 276.593 342.372 276.593 340.648V335.93C273.511 335.581 270.465 334.961 267.489 334.077L265.161 339.789C264.857 340.603 264.395 341.346 263.803 341.976C263.21 342.605 262.499 343.107 261.712 343.452C260.925 343.797 260.077 343.979 259.22 343.985C258.362 343.992 257.512 343.824 256.72 343.491C255.928 343.158 255.209 342.667 254.607 342.047C254.005 341.427 253.532 340.691 253.216 339.882C252.9 339.073 252.746 338.208 252.766 337.338C252.785 336.468 252.976 335.61 253.327 334.817L255.714 328.969C253.243 327.516 250.89 325.864 248.679 324.03L245.271 327.481C244.055 328.62 242.452 329.237 240.797 329.203C239.143 329.17 237.566 328.488 236.396 327.3C235.226 326.113 234.554 324.512 234.52 322.833C234.487 321.154 235.095 319.527 236.217 318.293L239.802 314.655C238.392 312.751 237.108 310.755 235.958 308.679L229.693 311.314C228.135 311.914 226.409 311.874 224.88 311.203C223.35 310.533 222.139 309.284 221.501 307.722C220.864 306.159 220.851 304.407 221.466 302.835C222.081 301.264 223.274 299.997 224.794 299.304L231.058 296.669C230.22 293.637 229.646 290.537 229.341 287.404H223.244C221.545 287.404 219.916 286.719 218.714 285.499C217.513 284.28 216.837 282.626 216.837 280.901C216.837 279.177 217.513 277.523 218.714 276.303C219.916 275.084 221.545 274.399 223.244 274.399H229.626C229.995 271.866 230.531 269.358 231.234 266.919L224.45 264.063C222.931 263.369 221.737 262.103 221.123 260.531C220.508 258.959 220.521 257.207 221.158 255.645C221.795 254.082 223.007 252.834 224.536 252.163C226.066 251.492 227.792 251.452 229.35 252.052L236.175 254.917C237.691 252.112 239.442 249.451 241.41 246.978L236.217 241.708C235.095 240.473 234.487 238.846 234.52 237.167C234.554 235.488 235.226 233.888 236.396 232.7C237.566 231.513 239.143 230.831 240.797 230.797C242.452 230.763 244.055 231.38 245.271 232.519L250.572 237.9C252.289 236.557 254.089 235.324 255.974 234.202L253.327 227.717C252.737 226.136 252.776 224.383 253.437 222.831C254.097 221.279 255.328 220.049 256.867 219.403C258.406 218.756 260.133 218.743 261.682 219.367C263.23 219.991 264.478 221.202 265.161 222.744L267.716 229C270.617 228.121 273.587 227.495 276.593 227.13V219.353C276.593 215.757 279.466 212.85 283 212.85ZM276.593 241.359C270.554 242.263 264.792 244.535 259.737 248.008C254.681 251.481 250.461 256.065 247.389 261.419L252.498 263.111C253.33 263.347 254.106 263.751 254.78 264.299C255.454 264.847 256.012 265.528 256.42 266.3C256.828 267.073 257.078 267.921 257.155 268.794C257.232 269.667 257.134 270.547 256.867 271.381C256.601 272.215 256.171 272.985 255.603 273.646C255.036 274.306 254.343 274.844 253.565 275.226C252.788 275.608 251.942 275.826 251.08 275.868C250.217 275.91 249.355 275.774 248.545 275.47L243.076 273.668C241.933 280.097 242.319 286.711 244.204 292.958C246.089 299.204 249.418 304.904 253.914 309.58L257.749 304.225C258.747 302.831 260.249 301.896 261.926 301.625C263.602 301.355 265.316 301.772 266.69 302.784C268.063 303.797 268.985 305.321 269.251 307.023C269.517 308.724 269.107 310.464 268.109 311.858L264.173 317.366C269.98 320.46 276.442 322.07 283 322.058C289.8 322.058 296.207 320.358 301.835 317.366L298.887 313.252C297.955 311.855 297.593 310.145 297.88 308.483C298.167 306.82 299.079 305.336 300.425 304.344C301.77 303.352 303.442 302.93 305.088 303.166C306.735 303.402 308.226 304.279 309.247 305.611L312.095 309.58C315.018 306.52 317.471 303.01 319.356 299.151C322.904 291.251 323.901 282.415 322.203 273.906L317.455 275.47C316.655 275.733 315.812 275.834 314.974 275.767C314.136 275.7 313.319 275.466 312.571 275.078C311.822 274.691 311.155 274.157 310.609 273.508C310.064 272.859 309.649 272.108 309.39 271.296C309.13 270.485 309.031 269.629 309.097 268.779C309.163 267.928 309.393 267.099 309.775 266.339C310.157 265.579 310.683 264.903 311.322 264.349C311.962 263.795 312.702 263.374 313.502 263.111L317.689 261.725C314.738 256.448 310.671 251.902 305.781 248.412C300.89 244.923 295.298 242.578 289.407 241.546V245.346C289.407 247.07 288.732 248.724 287.53 249.944C286.329 251.163 284.699 251.848 283 251.848C281.301 251.848 279.671 251.163 278.47 249.944C277.268 248.724 276.593 247.07 276.593 245.346V241.359Z" fill="black"/>
</g>
<g opacity="0.5">
<path d="M495.897 284.185L505.599 300.933H529.859V284.185H495.897ZM481.34 259.067L491.046 275.815H529.859V259.067H481.34ZM435.252 229.754L464.362 280L435.252 330.245H457.081L475.277 298.843L493.472 330.245H515.297L457.085 229.754H435.252ZM406.142 229.754L435.252 280L406.142 330.245H427.971L457.085 280L427.971 229.754H406.142Z" fill="black"/>
</g>
<g opacity='0.58'>
<path d="M583.391 252.591H601.93C607.371 252.637 611.312 254.308 613.758 257.608C616.199 260.903 617.008 265.405 616.18 271.108C615.84 273.771 615.115 276.361 614.031 278.784C612.973 281.296 611.496 283.558 609.605 285.572C607.301 288.126 604.836 289.755 602.207 290.442C599.534 291.136 596.793 291.484 594.043 291.476H585.742L583.113 305.496H573.5L583.391 252.591ZM591.484 260.999L587.328 283.139C587.605 283.185 587.883 283.21 588.16 283.21H589.129C593.555 283.26 597.246 282.791 600.195 281.807C603.148 280.777 605.129 277.184 606.145 271.037C606.973 265.87 606.145 262.896 603.652 262.109C601.211 261.322 598.145 260.953 594.453 260.999C593.924 261.048 593.394 261.073 592.863 261.075H591.41L591.484 260.999ZM627.133 238.5H636.68L633.98 252.595H642.559C647.262 252.691 650.766 253.726 653.07 255.694C655.422 257.662 656.117 261.397 655.148 266.908L650.512 291.48H640.828L645.254 268.014C645.715 265.555 645.578 263.809 644.84 262.779C644.102 261.745 642.512 261.23 640.066 261.23L632.391 261.154L626.719 291.48H617.172L627.133 238.5ZM665.398 252.591H683.934C689.375 252.637 693.32 254.308 695.762 257.608C698.207 260.903 699.016 265.405 698.184 271.108C697.846 273.771 697.122 276.36 696.039 278.784C694.98 281.296 693.504 283.558 691.613 285.572C689.309 288.126 686.84 289.755 684.211 290.442C681.538 291.136 678.797 291.484 676.047 291.476H667.75L665.121 305.496H655.508L665.398 252.591ZM673.492 260.999L669.34 283.139C669.617 283.185 669.895 283.21 670.172 283.21H671.141C675.566 283.26 679.254 282.791 682.207 281.807C685.156 280.777 687.141 277.184 688.156 271.037C688.984 265.87 688.156 262.896 685.664 262.109C683.223 261.322 680.156 260.953 676.465 260.999C675.936 261.048 675.406 261.073 674.875 261.075H673.422L673.492 260.999Z" fill="black"/>
</g>
<defs>
<clipPath id="clip0_0_1">
<rect width="111" height="107" fill="white" transform="translate(222 60)"/>
</clipPath>
<clipPath id="clip1_0_1">
<rect width="102" height="104" fill="white" transform="translate(411 63)"/>
</clipPath>
<clipPath id="clip2_0_1">
<rect width="116" height="116" fill="white" transform="translate(591 60)"/>
</clipPath>
</defs>
</svg>
