<svg width="706" height="905" viewBox="0 0 706 905" fill="none" xmlns="http://www.w3.org/2000/svg">
<g clip-path="url(#clip0_1_154)">
<rect width="706" height="905" fill="#010101"/>
<path d="M108 315V314C131.333 288.333 143 265 143 244C143 238.333 142.167 232.667 140.5 227C139.167 221.333 136.5 214.5 132.5 206.5C128.833 198.5 123.667 188.167 117 175.5C106.333 155.167 101 135.833 101 117.5C101 105.167 103.833 92 109.5 78C115.167 63.6667 123.5 50.3333 134.5 38H228V39C215.667 52.6666 206.833 65 201.5 76C196.167 86.6667 193.5 97.6667 193.5 109C193.5 117.333 195 125.5 198 133.5C201 141.5 205.833 151.833 212.5 164.5C221.5 180.833 227.667 194.167 231 204.5C234.667 214.5 236.5 224.833 236.5 235.5C236.5 249.833 234.167 263.333 229.5 276C224.833 288.333 217.167 301.333 206.5 315H108ZM249.113 315V314C272.447 288.333 284.113 265 284.113 244C284.113 238.333 283.28 232.667 281.613 227C280.28 221.333 277.613 214.5 273.613 206.5C269.947 198.5 264.78 188.167 258.113 175.5C247.447 155.167 242.113 135.833 242.113 117.5C242.113 105.167 244.947 92 250.613 78C256.28 63.6667 264.613 50.3333 275.613 38H369.113V39C356.78 52.6666 347.947 65 342.613 76C337.28 86.6667 334.613 97.6667 334.613 109C334.613 117.333 336.113 125.5 339.113 133.5C342.113 141.5 346.947 151.833 353.613 164.5C362.613 180.833 368.78 194.167 372.113 204.5C375.78 214.5 377.613 224.833 377.613 235.5C377.613 249.833 375.28 263.333 370.613 276C365.947 288.333 358.28 301.333 347.613 315H249.113Z" fill="#DDF247"/>
</g>
<defs>
<clipPath id="clip0_1_154">
<rect width="706" height="905" fill="white"/>
</clipPath>
</defs>
</svg>
