<svg width="40" height="39" viewBox="0 0 40 39" fill="none" xmlns="http://www.w3.org/2000/svg">
<path d="M1.52 39V38.86C4.78667 35.2667 6.42 32 6.42 29.06C6.42 28.2667 6.30333 27.4733 6.07 26.68C5.88333 25.8867 5.51 24.93 4.95 23.81C4.43667 22.69 3.71333 21.2433 2.78 19.47C1.28667 16.6233 0.54 13.9167 0.54 11.35C0.54 9.62333 0.936667 7.78 1.73 5.82C2.52333 3.81333 3.69 1.94667 5.23 0.219999H18.32V0.359997C16.5933 2.27333 15.3567 4 14.61 5.54C13.8633 7.03333 13.49 8.57333 13.49 10.16C13.49 11.3267 13.7 12.47 14.12 13.59C14.54 14.71 15.2167 16.1567 16.15 17.93C17.41 20.2167 18.2733 22.0833 18.74 23.53C19.2533 24.93 19.51 26.3767 19.51 27.87C19.51 29.8767 19.1833 31.7667 18.53 33.54C17.8767 35.2667 16.8033 37.0867 15.31 39H1.52ZM21.2759 39V38.86C24.5425 35.2667 26.1759 32 26.1759 29.06C26.1759 28.2667 26.0592 27.4733 25.8259 26.68C25.6392 25.8867 25.2659 24.93 24.7059 23.81C24.1925 22.69 23.4692 21.2433 22.5359 19.47C21.0425 16.6233 20.2959 13.9167 20.2959 11.35C20.2959 9.62333 20.6925 7.78 21.4859 5.82C22.2792 3.81333 23.4459 1.94667 24.9859 0.219999H38.0759V0.359997C36.3492 2.27333 35.1125 4 34.3659 5.54C33.6192 7.03333 33.2459 8.57333 33.2459 10.16C33.2459 11.3267 33.4559 12.47 33.8759 13.59C34.2959 14.71 34.9725 16.1567 35.9059 17.93C37.1659 20.2167 38.0292 22.0833 38.4959 23.53C39.0092 24.93 39.2659 26.3767 39.2659 27.87C39.2659 29.8767 38.9392 31.7667 38.2859 33.54C37.6325 35.2667 36.5592 37.0867 35.0659 39H21.2759Z" fill="#DDF247"/>
</svg>
