<svg width="40" height="40" viewBox="0 0 40 40" fill="none" xmlns="http://www.w3.org/2000/svg">
<path d="M32.5 28.3334L36.6667 32.5L32.5 36.6667" stroke="black" stroke-width="4" stroke-linecap="round" stroke-linejoin="round"/>
<path d="M6.66665 10C7.5507 10 8.39855 9.64885 9.02367 9.02373C9.64879 8.39861 9.99998 7.55076 9.99998 6.66671C9.99998 5.78265 9.64879 4.93481 9.02367 4.30968C8.39855 3.68456 7.5507 3.33337 6.66665 3.33337C5.78259 3.33337 4.93474 3.68456 4.30962 4.30968C3.6845 4.93481 3.33331 5.78265 3.33331 6.66671C3.33331 7.55076 3.6845 8.39861 4.30962 9.02373C4.93474 9.64885 5.78259 10 6.66665 10V10Z" stroke="black" stroke-width="4" stroke-linejoin="round"/>
<path d="M10 6.66675H16.6667C17.5507 6.66675 18.3986 7.01794 19.0237 7.64306C19.6488 8.26818 20 9.11603 20 10.0001V29.1667C20 30.0508 20.3512 30.8986 20.9763 31.5238C21.6014 32.1489 22.4493 32.5001 23.3333 32.5001H36.6667" stroke="black" stroke-width="4" stroke-linecap="round" stroke-linejoin="round"/>
</svg>
