<svg width="51" height="50" viewBox="0 0 51 50" fill="none" xmlns="http://www.w3.org/2000/svg">
<path d="M2.24 50V49.82C6.44 45.2 8.54 41 8.54 37.22C8.54 36.2 8.39 35.18 8.09 34.16C7.85 33.14 7.37 31.91 6.65 30.47C5.99 29.03 5.06 27.17 3.86 24.89C1.94 21.23 0.98 17.75 0.98 14.45C0.98 12.23 1.49 9.86 2.51 7.34C3.53 4.76 5.03 2.36 7.01 0.139998H23.84V0.319996C21.62 2.78 20.03 5 19.07 6.98C18.11 8.9 17.63 10.88 17.63 12.92C17.63 14.42 17.9 15.89 18.44 17.33C18.98 18.77 19.85 20.63 21.05 22.91C22.67 25.85 23.78 28.25 24.38 30.11C25.04 31.91 25.37 33.77 25.37 35.69C25.37 38.27 24.95 40.7 24.11 42.98C23.27 45.2 21.89 47.54 19.97 50H2.24ZM27.6404 50V49.82C31.8404 45.2 33.9404 41 33.9404 37.22C33.9404 36.2 33.7904 35.18 33.4904 34.16C33.2504 33.14 32.7704 31.91 32.0504 30.47C31.3904 29.03 30.4604 27.17 29.2604 24.89C27.3404 21.23 26.3804 17.75 26.3804 14.45C26.3804 12.23 26.8904 9.86 27.9104 7.34C28.9304 4.76 30.4304 2.36 32.4104 0.139998H49.2404V0.319996C47.0204 2.78 45.4304 5 44.4704 6.98C43.5104 8.9 43.0304 10.88 43.0304 12.92C43.0304 14.42 43.3004 15.89 43.8404 17.33C44.3804 18.77 45.2504 20.63 46.4504 22.91C48.0704 25.85 49.1804 28.25 49.7804 30.11C50.4404 31.91 50.7704 33.77 50.7704 35.69C50.7704 38.27 50.3504 40.7 49.5104 42.98C48.6704 45.2 47.2904 47.54 45.3704 50H27.6404Z" fill="black"/>
</svg>
