        <svg width="214" height="224" viewBox="0 0 214 224" fill="none" xmlns="http://www.w3.org/2000/svg">
            <path d="M-12.2779 215.267L205.43 151.834L-12.2779 215.267ZM17.089 181.182L162.228 138.893C175.588 135.001 183.32 121.318 179.5 108.332L155.288 26.0369C151.467 13.0511 137.54 5.67948 124.18 9.57217L-20.9584 51.8611C-34.3181 55.7537 -42.051 69.4364 -38.2305 82.4222L-14.0185 164.717C-10.1978 177.704 3.72936 185.075 17.089 181.182Z" fill="#DDF247"/>
            <path d="M-12.2779 215.267L205.43 151.834M17.089 181.182L162.228 138.893C175.588 135.001 183.32 121.318 179.5 108.332L155.288 26.0369C151.467 13.0511 137.54 5.67948 124.18 9.57217L-20.9584 51.8611C-34.3181 55.7537 -42.051 69.4364 -38.2305 82.4222L-14.0185 164.717C-10.1978 177.704 3.72936 185.075 17.089 181.182Z" stroke="#303030" stroke-width="17" stroke-linecap="round" stroke-linejoin="round"/>
            <path d="M53.1458 138.55L53.0784 138.32C56.7218 130.835 57.8355 124.674 56.4193 119.837C56.0372 118.531 55.4631 117.282 54.697 116.09C54.0078 114.874 52.9327 113.48 51.4719 111.907C50.0879 110.312 48.201 108.28 45.8112 105.812C41.9831 101.848 39.4509 97.7549 38.2146 93.5322C37.3828 90.6914 37.1475 87.4677 37.5086 83.8609C37.8472 80.1774 38.8675 76.5443 40.5694 72.9617L62.1053 66.6563L62.1727 66.8867C60.2536 70.8662 59.0508 74.3027 58.5641 77.196C58.055 80.0125 58.1826 82.726 58.9469 85.3364C59.5089 87.2558 60.4051 89.0357 61.6356 90.676C62.8661 92.3164 64.6762 94.3705 67.066 96.8384C70.2404 99.9936 72.56 102.649 74.0246 104.804C75.5435 106.86 76.6627 109.117 77.382 111.573C78.3486 114.875 78.7216 118.142 78.5009 121.374C78.2578 124.529 77.3686 128.041 75.8334 131.908L53.1458 138.55ZM85.6485 129.034L85.5811 128.804C89.2245 121.318 90.3382 115.157 88.922 110.32C88.5399 109.015 87.9658 107.766 87.1997 106.573C86.5105 105.358 85.4355 103.964 83.9746 102.391C82.5906 100.796 80.7037 98.764 78.3139 96.296C74.4859 92.332 71.9536 88.2386 70.7173 84.0159C69.8855 81.1751 69.6502 77.9514 70.0113 74.3446C70.3499 70.661 71.3702 67.028 73.0721 63.4454L94.608 57.14L94.6754 57.3703C92.7563 61.3499 91.5535 64.7864 91.0668 67.6797C90.5577 70.4962 90.6853 73.2097 91.4496 75.8201C92.0116 77.7395 92.9079 79.5194 94.1383 81.1597C95.3688 82.8 97.179 84.8542 99.5687 87.3221C102.743 90.4772 105.063 93.1324 106.527 95.2877C108.046 97.3438 109.165 99.6002 109.885 102.057C110.851 105.358 111.224 108.625 111.004 111.858C110.76 115.013 109.871 118.524 108.336 122.391L85.6485 129.034Z" fill="black"/>
            </svg>