<svg width="255" height="225" viewBox="0 0 255 225" fill="none" xmlns="http://www.w3.org/2000/svg">
<path d="M35.9214 215.759L252.576 152.325L35.9214 215.759ZM65.1463 181.674L209.583 139.385C222.878 135.492 230.573 121.81 226.771 108.824L202.676 26.5283C198.874 13.5425 185.015 6.17087 171.719 10.0636L27.2829 52.3525C13.9879 56.2451 6.29238 69.9277 10.0944 82.9136L34.1893 165.209C37.9915 178.195 51.8513 185.566 65.1463 181.674Z" fill="#DDF247"/>
<path d="M35.9214 215.759L252.576 152.325M65.1463 181.674L209.583 139.385C222.878 135.492 230.573 121.81 226.771 108.824L202.676 26.5283C198.874 13.5425 185.015 6.17087 171.719 10.0636L27.2829 52.3525C13.9879 56.2451 6.29238 69.9277 10.0944 82.9136L34.1893 165.209C37.9915 178.195 51.8513 185.566 65.1463 181.674Z" stroke="#303030" stroke-width="17" stroke-linecap="round" stroke-linejoin="round"/>
<path d="M101.32 139.042L101.252 138.811C104.896 131.326 106.009 125.165 104.593 120.328C104.211 119.023 103.637 117.774 102.871 116.581C102.182 115.366 101.107 113.971 99.6458 112.399C98.2617 110.803 96.3748 108.772 93.9851 106.304C90.157 102.34 87.6248 98.2461 86.3884 94.0234C85.5567 91.1827 85.3213 87.9589 85.6824 84.3521C86.021 80.6686 87.0413 77.0355 88.7432 73.453L110.279 67.1475L110.347 67.3779C108.427 71.3575 107.225 74.7939 106.738 77.6872C106.229 80.5037 106.356 83.2172 107.121 85.8276C107.683 87.747 108.579 89.5269 109.809 91.1672C111.04 92.8076 112.85 94.8617 115.24 97.3296C118.414 100.485 120.734 103.14 122.198 105.295C123.717 107.351 124.836 109.608 125.556 112.065C126.522 115.366 126.895 118.633 126.675 121.865C126.432 125.021 125.542 128.532 124.007 132.399L101.32 139.042ZM133.822 129.525L133.755 129.295C137.398 121.81 138.512 115.648 137.096 110.812C136.714 109.506 136.14 108.257 135.374 107.064C134.684 105.849 133.609 104.455 132.148 102.882C130.764 101.287 128.878 99.2552 126.488 96.7872C122.66 92.8232 120.127 88.7298 118.891 84.5071C118.059 81.6663 117.824 78.4426 118.185 74.8358C118.524 71.1522 119.544 67.5192 121.246 63.9366L142.782 57.6312L142.849 57.8615C140.93 61.8411 139.727 65.2776 139.241 68.1709C138.732 70.9874 138.859 73.7009 139.623 76.3113C140.185 78.2307 141.082 80.0106 142.312 81.6509C143.543 83.2912 145.353 85.3454 147.743 87.8133C150.917 90.9685 153.237 93.6237 154.701 95.779C156.22 97.835 157.339 100.091 158.059 102.548C159.025 105.85 159.398 109.117 159.177 112.349C158.934 115.504 158.045 119.016 156.51 122.883L133.822 129.525Z" fill="black"/>
</svg>
